<svg width="16" height="16" viewBox="0 0 16 16" fill="none" xmlns="http://www.w3.org/2000/svg">
<path fill-rule="evenodd" clip-rule="evenodd" d="M2.66231 0C1.19196 0 0 1.19391 0 2.66667V13.3333C0 14.8061 1.19196 16 2.66231 16H13.0044C14.4747 16 15.6667 14.8061 15.6667 13.3333V2.66667C15.6667 1.19391 14.4747 0 13.0044 0H2.66231ZM2.15015 3.5792C2.15015 4.38367 2.75908 4.97157 3.51022 4.97157C4.26146 4.97157 4.87039 4.38367 4.87039 3.5792C4.87039 2.77484 4.26146 2.18628 3.51022 2.18628C2.75908 2.18628 2.15015 2.77484 2.15015 3.5792ZM11.0279 13.7508H13.3871V8.98507C13.3871 6.63137 11.9645 5.82858 10.6482 5.82858C9.43095 5.82858 8.60408 6.63843 8.37578 7.11282V6.04516H6.107V13.7508H8.46612V9.57307C8.46612 8.45914 9.15232 7.91741 9.85235 7.91741C10.5145 7.91741 11.0279 8.30037 11.0279 9.54215V13.7508ZM4.68972 6.03923V13.7449H2.33071V6.03923H4.68972Z" fill="#9E9E9E"/>
</svg>
