<svg width="16" height="16" viewBox="0 0 16 16" fill="none" xmlns="http://www.w3.org/2000/svg">
<g clip-path="url(#clip0_1761_395)">
<path d="M3.53126 5.13135H0.412506V15.9999H3.53126V5.13135Z" fill="#9E9E9E"/>
<path d="M1.90625 0C0.75625 0 0 0.809869 0 1.88516C0 2.94003 0.73125 3.77031 1.8625 3.77031H1.8875C3.0625 3.77031 3.79375 2.93322 3.7875 1.88516C3.7625 0.809869 3.05625 0 1.90625 0Z" fill="#9E9E9E"/>
<path d="M12.05 5.0293C10.2625 5.0293 9.14374 6.09097 8.93749 6.83959V5.13138H5.43124C5.47499 6.03653 5.43124 15.9999 5.43124 15.9999H8.93749V10.1267C8.93749 9.79323 8.92499 9.46656 9.01249 9.23517C9.24999 8.58183 9.76874 7.90127 10.7 7.90127C11.9187 7.90127 12.4687 8.9085 12.4687 10.3785V15.9999H16.0062V9.95656C16.0062 6.59459 14.2687 5.0293 12.05 5.0293Z" fill="#9E9E9E"/>
</g>
<defs>
<clipPath id="clip0_1761_395">
<rect width="16" height="16" fill="white"/>
</clipPath>
</defs>
</svg>
