<svg width="16" height="16" viewBox="0 0 16 16" fill="none" xmlns="http://www.w3.org/2000/svg">
<g clip-path="url(#clip0_1761_400)">
<path fill-rule="evenodd" clip-rule="evenodd" d="M13.1849 2.95331C13.9101 2.64793 14.6877 3.26122 14.5596 4.03768L13.047 13.2088C12.9011 14.0931 11.9299 14.6005 11.1187 14.1598C10.4398 13.7911 9.43261 13.2235 8.52487 12.6304C8.07161 12.3342 6.68367 11.3845 6.85427 10.7084C7.00014 10.1303 9.33341 7.95842 10.6667 6.66675C11.1905 6.15937 10.9519 5.86626 10.3334 6.33342C8.79901 7.49228 6.33555 9.25422 5.52091 9.75008C4.80216 10.1875 4.42688 10.2622 3.97925 10.1875C3.16183 10.0513 2.40398 9.84042 1.78526 9.58395C0.949014 9.23728 0.989747 8.08808 1.78469 7.75342L13.1849 2.95331Z" fill="#9E9E9E"/>
</g>
<defs>
<clipPath id="clip0_1761_400">
<rect width="16" height="16" fill="white"/>
</clipPath>
</defs>
</svg>
