<svg width="16" height="16" viewBox="0 0 16 16" fill="none" xmlns="http://www.w3.org/2000/svg">
<path fill-rule="evenodd" clip-rule="evenodd" d="M4.82353 12.441C5.14037 12.6082 5.49323 12.6955 5.85143 12.6953C7.0446 12.6953 8.01863 11.7462 8.0626 10.5633L8.067 0H10.7025C10.7028 0.224362 10.7236 0.448227 10.7648 0.668773H8.8351V0.66914H11.471C11.4706 1.55321 11.791 2.40739 12.3728 3.07306L12.3736 3.07391C12.967 3.4616 13.6607 3.66773 14.3696 3.66707V4.25407C14.6177 4.3072 14.8742 4.3355 15.1381 4.3355V6.97173C13.8222 6.97327 12.5393 6.5607 11.471 5.7925V11.1489C11.471 13.8236 9.29463 16 6.61953 16C5.95337 16.0002 5.29433 15.8627 4.68373 15.5963C4.07357 15.3301 3.52497 14.9408 3.07218 14.4528L3.07118 14.4521C1.82012 13.5737 1 12.1211 1 10.4801C1 7.80503 3.17635 5.62833 5.85143 5.62833C6.0702 5.62937 6.2886 5.6453 6.5052 5.67597V6.30003C6.52043 6.29973 6.53557 6.2992 6.55077 6.2987C6.57357 6.2979 6.59643 6.2971 6.61953 6.2971C6.83827 6.29813 7.0567 6.31407 7.27327 6.34473V9.0356C7.0666 8.97073 6.84783 8.93297 6.61953 8.93297C6.03207 8.93367 5.46887 9.16737 5.0535 9.5828C4.63813 9.99823 4.40453 10.5615 4.40397 11.1489C4.404 11.6129 4.55063 12.065 4.82297 12.4407L4.82353 12.441ZM2.08809 12.8799C2.31325 13.4665 2.64927 13.9987 3.07011 14.451C2.6407 13.9914 2.30912 13.457 2.08809 12.8799Z" fill="#9E9E9E"/>
</svg>
