<svg width="16" height="16" viewBox="0 0 16 16" fill="none" xmlns="http://www.w3.org/2000/svg">
<path fill-rule="evenodd" clip-rule="evenodd" d="M2.13237 11.2216L1.18098 14.6953L4.73585 13.7631C5.71537 14.2973 6.8181 14.5788 7.9403 14.5793H7.94319C11.639 14.5793 14.6475 11.5716 14.6491 7.87558C14.6498 6.0842 13.9527 4.39996 12.6868 3.13283C11.4206 1.86569 9.73695 1.16762 7.94319 1.16675C4.24678 1.16675 1.23876 4.17389 1.23725 7.87018C1.23687 9.05166 1.54559 10.205 2.13237 11.2216ZM2.3695 7.87053C2.37063 4.79846 4.87088 2.29911 7.94534 2.29911C9.43416 2.29974 10.8334 2.87998 11.8858 3.9331C12.9382 4.98622 13.5173 6.38624 13.5168 7.87505C13.5155 10.9474 11.0153 13.447 7.94318 13.447H7.94106C6.94069 13.4465 5.95978 13.178 5.10422 12.6702L4.90052 12.5495L2.79099 13.1026L3.35419 11.0466L3.22156 10.8359C2.66366 9.94864 2.36905 8.92328 2.3695 7.87053Z" fill="#9E9E9E"/>
<path fill-rule="evenodd" clip-rule="evenodd" d="M6.26724 5.06763C6.14165 4.78868 6.00952 4.78303 5.89021 4.77813C5.79249 4.77398 5.68071 4.77423 5.56906 4.77423C5.45728 4.77423 5.27579 4.81618 5.12231 4.98385C4.96871 5.15152 4.53578 5.55682 4.53578 6.38123C4.53578 7.20565 5.13626 8.00217 5.2199 8.11408C5.30367 8.22586 6.37902 9.97164 8.08223 10.6432C9.49757 11.2014 9.78556 11.0903 10.0929 11.0624C10.4001 11.0346 11.0842 10.6571 11.2238 10.2659C11.3634 9.87468 11.3634 9.53947 11.3216 9.46939C11.2796 9.39943 11.168 9.35761 11.0003 9.27383C10.8328 9.19006 10.009 8.78464 9.85539 8.72875C9.70179 8.67286 9.59013 8.64497 9.47835 8.81264C9.3667 8.98031 9.0458 9.35761 8.94796 9.46939C8.85025 9.58129 8.75253 9.59523 8.58486 9.51146C8.41732 9.42744 7.87763 9.25072 7.23747 8.67989C6.73936 8.23578 6.40314 7.68731 6.3053 7.51963C6.20759 7.35196 6.29488 7.26128 6.3789 7.17776C6.45413 7.10266 6.54644 6.98208 6.63034 6.88425C6.71386 6.78641 6.74187 6.71657 6.79764 6.60492C6.85353 6.49301 6.82564 6.39517 6.78369 6.3114C6.74187 6.22763 6.4162 5.39895 6.26724 5.06763Z" fill="#9E9E9E"/>
</svg>
